<svg xmlns="http://www.w3.org/2000/svg" width="16" height="16" viewBox="0 0 4.233 4.233"><path d="M2.117.529q-.303.002-.572.107.03.03.051.062a.2.2 0 0 1 .08.036q.031.05.043.11a.24.24 0 0 1 .126.017c.057.091.06.128.053.198A.16.16 0 0 1 2 1.065q.057-.007.117-.007c.588 0 1.059.471 1.059 1.059 0 .587-.471 1.059-1.059 1.059a1.055 1.055 0 0 1-1.053-1.17c-.182-.103-.309-.288-.345-.58l.003-.066a1.6 1.6 0 0 0-.193.757c0 .873.715 1.588 1.588 1.588s1.588-.715 1.588-1.588S2.991.529 2.117.529" style="fill:#b3b3b3;fill-opacity:1;stroke:none"/><path d="M3.58 3.063a.62.62 0 0 0-.104-.36.15.15 0 0 0-.105-.006c.008-.07.004-.107-.053-.199a.24.24 0 0 0-.126-.017.3.3 0 0 0-.043-.11.2.2 0 0 0-.08-.035.4.4 0 0 0-.183-.147.4.4 0 0 0-.183.147.2.2 0 0 0-.08.035.3.3 0 0 0-.042.11.24.24 0 0 0-.126.017c-.058.092-.06.128-.053.2a.15.15 0 0 0-.105.006.62.62 0 0 0-.105.36c.063.502.393.69.814.683.454-.074.575-.345.575-.684" style="fill:#e0e0e0;fill-opacity:1;stroke-width:.328034;stroke-linecap:round;stroke-linejoin:bevel;stroke-miterlimit:2;paint-order:stroke fill markers"/><path d="M2.107 1.426a.62.62 0 0 0-.104-.36.15.15 0 0 0-.105-.006c.007-.07.004-.108-.053-.199a.24.24 0 0 0-.126-.017.3.3 0 0 0-.043-.11.2.2 0 0 0-.08-.035.4.4 0 0 0-.183-.147A.4.4 0 0 0 1.23.7a.2.2 0 0 0-.08.035.3.3 0 0 0-.043.11.24.24 0 0 0-.126.017c-.057.091-.06.128-.053.2a.15.15 0 0 0-.105.006.62.62 0 0 0-.104.36c.063.502.393.69.813.683a.694.694 0 0 0 .575-.684Z" style="fill:none;fill-opacity:1;stroke:#e0e0e0;stroke-width:.132292;stroke-linecap:butt;stroke-linejoin:round;stroke-miterlimit:2;stroke-dasharray:none;stroke-opacity:1;paint-order:fill markers stroke"/></svg>