<svg xmlns="http://www.w3.org/2000/svg" xmlns:xlink="http://www.w3.org/1999/xlink" width="16" height="16" viewBox="0 0 4.233 4.233"><defs><linearGradient id="a"><stop offset=".191" style="stop-color:#41ecad;stop-opacity:1"/><stop offset="1" style="stop-color:#41ecad;stop-opacity:0"/></linearGradient><linearGradient xlink:href="#a" id="b" x1="2.117" x2="2.117" y1=".529" y2="3.704" gradientTransform="translate(-.154 -4.08)" gradientUnits="userSpaceOnUse"/></defs><path d="M1.917.42c.309.001.57.078.8.233a.34.34 0 0 1 .014.233c.156-.017.238-.01.44.118a.53.53 0 0 1 .04.28.7.7 0 0 1 .244.095c.049.057.07.145.077.177h.001q.103.068.183.163.091.11.142.244a.9.9 0 0 1-.142.244.9.9 0 0 1-.183.163h-.001a.44.44 0 0 1-.077.177.7.7 0 0 1-.244.095.53.53 0 0 1-.04.28c-.202.127-.284.134-.44.118a.34.34 0 0 1-.015.233c-.228.154-.49.23-.799.232-.679 0-1.265-.443-1.466-1.07l.587-.08a1.008 1.021 0 0 0 .925.629 1.008 1.021 0 0 0 .972-.757h.615v-.529h-.615a1.008 1.021 0 0 0-.972-.756 1.008 1.021 0 0 0-.972.756H.399A1.54 1.54 0 0 1 1.917.421" style="opacity:1;fill:#41ecad;fill-opacity:1;stroke-width:.728577;stroke-linecap:round;stroke-linejoin:bevel;stroke-miterlimit:2;paint-order:stroke fill markers" transform="matrix(-1 0 0 1 4.108 .154)"/><path d="M1.698-3.55h.529v3.175h-.529z" style="opacity:1;fill:url(#b);fill-opacity:1;stroke:none;stroke-width:.63633;stroke-linecap:round;stroke-linejoin:bevel;stroke-miterlimit:2;stroke-opacity:1;paint-order:stroke fill markers" transform="matrix(0 1 1 0 4.108 .154)"/></svg>